<svg width="75" height="62" viewBox="0 0 75 62" fill="none" xmlns="http://www.w3.org/2000/svg">
<path d="M24.7779 9.72473V11.0091C27.0633 9.53585 29.5943 9.81917 32.7864 11.2169C35.3401 12.3351 35.9659 14.7426 35.9596 15.8067C35.7329 15.3534 35.3741 15.4037 35.223 15.4856C35.7367 16.1504 35.437 17.4373 35.223 17.9977C35.3287 17.5897 35.267 17.1099 35.223 16.9211C35.0152 18.0921 34.7319 18.281 34.4297 19.5465C33.3908 20.5476 33.3719 21.2464 33.9197 22.5308C34.3579 23.5583 34.2282 23.8404 34.1086 23.8529H32.9564C32.9375 23.79 32.9111 23.7887 32.9564 24.2874C33.0017 24.786 32.4086 24.7848 32.1064 24.7218C32.1669 25.0089 32.1946 25.2695 32.2009 25.364L31.7287 25.5906C31.5473 27.7817 29.2732 26.3525 28.1588 25.364C27.6451 25.7569 27.567 26.4847 27.5922 26.7995C30.1912 28.1594 31.2691 29.5319 31.4831 30.0482C33.8404 28.1443 36.4947 26.1321 37.5273 25.364C38.0108 25.5755 38.988 26.4091 39.4161 26.7995C39.0837 26.4066 38.3458 25.6788 38.0184 25.364L39.0761 25.0996C40.6476 26.4897 43.2063 29.9349 44.2892 31.4837C43.9265 30.7886 42.6522 28.7261 42.0604 27.7817L45.9513 26.4595C45.4241 31.5641 45.8243 33.0655 46.0813 33.4423C46.1206 33.4374 46.1532 33.439 46.178 33.448C46.3299 33.5033 46.2294 33.6595 46.0813 33.4423C45.5937 33.5036 44.0644 34.577 43.307 35.148C43.2466 35.6315 41.7708 37.3893 41.0405 38.2078C46.2913 36.1679 51.4666 31.937 49.9556 20.8686C48.7468 12.014 40.1968 9.74992 36.0729 9.72473H24.7779Z" fill="#3A7AD5"/>
<path d="M12.8006 46.2078C12.7388 46.2078 12.6882 46.1882 12.6489 46.1488C12.6095 46.1095 12.5899 46.0589 12.5899 45.9972V40.5196C12.5899 40.4578 12.6095 40.4073 12.6489 40.3679C12.6882 40.3286 12.7388 40.309 12.8006 40.309H14.9916C15.5421 40.309 16.0112 40.3988 16.3989 40.5786C16.7865 40.7528 17.0843 41.0112 17.2921 41.3539C17.5 41.691 17.6123 42.1095 17.6292 42.6095C17.6348 42.8567 17.6376 43.073 17.6376 43.2584C17.6376 43.4438 17.6348 43.6573 17.6292 43.8988C17.6067 44.4213 17.4944 44.8539 17.2921 45.1966C17.0955 45.5393 16.8062 45.7949 16.4241 45.9634C16.0477 46.1264 15.5843 46.2078 15.0337 46.2078H12.8006ZM14.0983 44.9943H14.9916C15.2331 44.9943 15.4326 44.9578 15.5899 44.8848C15.7528 44.8061 15.8736 44.6854 15.9522 44.5224C16.0365 44.3595 16.0815 44.146 16.0871 43.882C16.0983 43.7191 16.1039 43.573 16.1039 43.4438C16.1095 43.3146 16.1095 43.1854 16.1039 43.0561C16.1039 42.9269 16.0983 42.7837 16.0871 42.6264C16.0758 42.2443 15.9747 41.9663 15.7837 41.7921C15.5983 41.6123 15.3202 41.5224 14.9494 41.5224H14.0983V44.9943ZM18.74 46.2078C18.6782 46.2078 18.6277 46.1882 18.5884 46.1488C18.549 46.1095 18.5294 46.0589 18.5294 45.9972V42.0365C18.5294 41.9803 18.549 41.9326 18.5884 41.8932C18.6277 41.8483 18.6782 41.8258 18.74 41.8258H19.7091C19.7709 41.8258 19.8215 41.8483 19.8608 41.8932C19.9002 41.9326 19.9198 41.9803 19.9198 42.0365V42.3736C20.0715 42.1994 20.2513 42.0646 20.4591 41.9691C20.6726 41.8736 20.9114 41.8258 21.1754 41.8258H21.5462C21.6024 41.8258 21.6502 41.8455 21.6895 41.8848C21.7344 41.9241 21.7569 41.9747 21.7569 42.0365V42.9045C21.7569 42.9606 21.7344 43.0112 21.6895 43.0561C21.6502 43.0955 21.6024 43.1151 21.5462 43.1151H20.7288C20.4985 43.1151 20.3187 43.1797 20.1895 43.309C20.0659 43.4325 20.0041 43.6095 20.0041 43.8399V45.9972C20.0041 46.0589 19.9816 46.1095 19.9367 46.1488C19.8973 46.1882 19.8468 46.2078 19.785 46.2078H18.74ZM24.3456 46.2921C23.6827 46.2921 23.1546 46.1123 22.7613 45.7528C22.3681 45.3932 22.163 44.8595 22.1462 44.1516C22.1462 44.1123 22.1462 44.0618 22.1462 44C22.1462 43.9382 22.1462 43.8904 22.1462 43.8567C22.163 43.4129 22.2613 43.0337 22.4411 42.7191C22.6265 42.3988 22.8793 42.1573 23.1995 41.9943C23.5254 41.8258 23.9046 41.7415 24.3372 41.7415C24.8316 41.7415 25.2389 41.8399 25.5591 42.0365C25.8849 42.2331 26.1293 42.5 26.2922 42.837C26.4552 43.1741 26.5366 43.559 26.5366 43.9915V44.1938C26.5366 44.2556 26.5141 44.3061 26.4692 44.3455C26.4299 44.3848 26.3821 44.4045 26.3259 44.4045H23.6293C23.6293 44.4101 23.6293 44.4185 23.6293 44.4297C23.6293 44.441 23.6293 44.4522 23.6293 44.4634C23.6349 44.6264 23.663 44.7752 23.7136 44.9101C23.7642 45.0449 23.8428 45.1516 23.9495 45.2303C24.0563 45.3089 24.1855 45.3483 24.3372 45.3483C24.4495 45.3483 24.5422 45.3314 24.6153 45.2977C24.6939 45.2584 24.7585 45.2163 24.8091 45.1713C24.8597 45.1207 24.899 45.0786 24.9271 45.0449C24.9776 44.9887 25.017 44.955 25.0451 44.9438C25.0788 44.9269 25.1293 44.9185 25.1967 44.9185H26.2417C26.2979 44.9185 26.3428 44.9354 26.3765 44.9691C26.4158 44.9972 26.4327 45.0393 26.4271 45.0955C26.4215 45.191 26.3737 45.3061 26.2838 45.441C26.1939 45.5758 26.0619 45.7106 25.8877 45.8455C25.7192 45.9747 25.5057 46.0814 25.2473 46.1657C24.9889 46.25 24.6883 46.2921 24.3456 46.2921ZM23.6293 43.5702H25.0535V43.5533C25.0535 43.3736 25.0254 43.2163 24.9692 43.0814C24.9186 42.9466 24.8372 42.8427 24.7248 42.7696C24.6181 42.6966 24.4889 42.6601 24.3372 42.6601C24.1855 42.6601 24.0563 42.6966 23.9495 42.7696C23.8484 42.8427 23.7698 42.9466 23.7136 43.0814C23.6574 43.2163 23.6293 43.3736 23.6293 43.5533V43.5702ZM28.6413 46.2921C28.3379 46.2921 28.0654 46.2359 27.8238 46.1236C27.5879 46.0056 27.3997 45.8483 27.2592 45.6516C27.1188 45.455 27.0486 45.2331 27.0486 44.9859C27.0486 44.587 27.2115 44.2724 27.5373 44.0421C27.8632 43.8061 28.2957 43.646 28.8351 43.5618L29.8884 43.4017V43.2837C29.8884 43.0814 29.8463 42.9269 29.762 42.8202C29.6778 42.7134 29.5233 42.6601 29.2986 42.6601C29.1413 42.6601 29.012 42.691 28.9109 42.7528C28.8154 42.8146 28.7396 42.8988 28.6834 43.0056C28.6328 43.0786 28.5626 43.1151 28.4727 43.1151H27.5289C27.4671 43.1151 27.4193 43.0983 27.3856 43.0646C27.3519 43.0252 27.3379 42.9803 27.3435 42.9297C27.3435 42.8286 27.38 42.7134 27.4531 42.5842C27.5317 42.4494 27.6497 42.3174 27.807 42.1882C27.9643 42.059 28.1665 41.9522 28.4137 41.8679C28.6609 41.7837 28.9587 41.7415 29.307 41.7415C29.6721 41.7415 29.9839 41.7837 30.2424 41.8679C30.5008 41.9522 30.7087 42.0702 30.866 42.2219C31.0289 42.3736 31.1497 42.5533 31.2283 42.7612C31.307 42.9634 31.3463 43.1882 31.3463 43.4354V45.9972C31.3463 46.0589 31.3238 46.1095 31.2789 46.1488C31.2396 46.1882 31.1918 46.2078 31.1356 46.2078H30.1581C30.0963 46.2078 30.0457 46.1882 30.0064 46.1488C29.9671 46.1095 29.9474 46.0589 29.9474 45.9972V45.7022C29.8744 45.8089 29.7761 45.9073 29.6525 45.9972C29.5289 46.087 29.3828 46.1573 29.2143 46.2078C29.0514 46.264 28.8604 46.2921 28.6413 46.2921ZM29.0373 45.3314C29.2002 45.3314 29.3463 45.2977 29.4755 45.2303C29.6104 45.1573 29.7143 45.0477 29.7873 44.9016C29.866 44.75 29.9053 44.5618 29.9053 44.337V44.2191L29.189 44.3455C28.925 44.3904 28.7311 44.4606 28.6075 44.5561C28.4896 44.646 28.4306 44.7528 28.4306 44.8764C28.4306 44.9719 28.4587 45.0533 28.5148 45.1207C28.571 45.1882 28.6441 45.2415 28.7339 45.2809C28.8238 45.3146 28.925 45.3314 29.0373 45.3314ZM32.5079 46.2078C32.4461 46.2078 32.3955 46.1882 32.3562 46.1488C32.3169 46.1095 32.2972 46.0589 32.2972 45.9972V42.0365C32.2972 41.9747 32.3169 41.9241 32.3562 41.8848C32.3955 41.8455 32.4461 41.8258 32.5079 41.8258H33.4264C33.4882 41.8258 33.5388 41.8455 33.5781 41.8848C33.6175 41.9241 33.6371 41.9747 33.6371 42.0365V42.323C33.7495 42.1713 33.9068 42.0393 34.109 41.9269C34.3113 41.809 34.55 41.7472 34.8253 41.7415C35.4714 41.7303 35.9152 41.9747 36.1568 42.4747C36.286 42.2612 36.4714 42.087 36.713 41.9522C36.9545 41.8118 37.2186 41.7415 37.5051 41.7415C37.7972 41.7415 38.0585 41.809 38.2888 41.9438C38.5247 42.073 38.7129 42.2752 38.8534 42.5505C38.9938 42.8202 39.0641 43.1713 39.0641 43.6039V45.9972C39.0641 46.0589 39.0416 46.1095 38.9967 46.1488C38.9573 46.1882 38.9096 46.2078 38.8534 46.2078H37.8759C37.8141 46.2078 37.7607 46.1882 37.7158 46.1488C37.6764 46.1095 37.6568 46.0589 37.6568 45.9972V43.6629C37.6568 43.4663 37.6287 43.3118 37.5725 43.1994C37.5163 43.0814 37.4405 42.9972 37.345 42.9466C37.2495 42.896 37.1399 42.8708 37.0163 42.8708C36.9152 42.8708 36.8141 42.896 36.713 42.9466C36.6174 42.9972 36.5388 43.0814 36.477 43.1994C36.4208 43.3118 36.3927 43.4663 36.3927 43.6629V45.9972C36.3927 46.0589 36.3731 46.1095 36.3337 46.1488C36.2944 46.1882 36.2439 46.2078 36.1821 46.2078H35.2045C35.1427 46.2078 35.0922 46.1882 35.0528 46.1488C35.0135 46.1095 34.9939 46.0589 34.9939 45.9972V43.6629C34.9939 43.4663 34.963 43.3118 34.9012 43.1994C34.8394 43.0814 34.7607 42.9972 34.6652 42.9466C34.5697 42.896 34.463 42.8708 34.345 42.8708C34.2439 42.8708 34.1427 42.896 34.0416 42.9466C33.9461 42.9972 33.8675 43.0814 33.8057 43.1994C33.7495 43.3118 33.7214 43.4634 33.7214 43.6545V45.9972C33.7214 46.0589 33.6989 46.1095 33.654 46.1488C33.6146 46.1882 33.5641 46.2078 33.5023 46.2078H32.5079ZM42.1056 46.2078C42.0438 46.2078 41.9933 46.1882 41.9539 46.1488C41.9146 46.1095 41.8949 46.0589 41.8949 45.9972V40.5196C41.8949 40.4578 41.9146 40.4073 41.9539 40.3679C41.9933 40.3286 42.0438 40.309 42.1056 40.309H44.6758C45.159 40.309 45.555 40.3764 45.864 40.5112C46.173 40.646 46.4005 40.8399 46.5466 41.0927C46.6983 41.3399 46.7741 41.6348 46.7741 41.9775C46.7741 42.1797 46.7348 42.3595 46.6562 42.5168C46.5831 42.6685 46.4904 42.7949 46.3781 42.896C46.2713 42.9972 46.1702 43.0702 46.0747 43.1151C46.2882 43.2163 46.4764 43.382 46.6393 43.6123C46.8078 43.8427 46.8921 44.1123 46.8921 44.4213C46.8921 44.7921 46.8078 45.1123 46.6393 45.382C46.4764 45.646 46.2348 45.8511 45.9146 45.9972C45.6 46.1376 45.2123 46.2078 44.7517 46.2078H42.1056ZM43.4034 45.1123H44.5831C44.8247 45.1123 45.0073 45.0421 45.1309 44.9016C45.2545 44.7612 45.3163 44.6011 45.3163 44.4213C45.3163 44.2247 45.2517 44.059 45.1225 43.9241C44.9989 43.7893 44.8191 43.7219 44.5831 43.7219H43.4034V45.1123ZM43.4034 42.6517H44.5073C44.7376 42.6517 44.909 42.5927 45.0213 42.4747C45.1393 42.3567 45.1983 42.205 45.1983 42.0196C45.1983 41.8399 45.1393 41.6938 45.0213 41.5814C44.909 41.4635 44.7376 41.4045 44.5073 41.4045H43.4034V42.6517ZM49.8087 46.2921C49.3368 46.2921 48.9379 46.2163 48.6121 46.0646C48.2918 45.9129 48.0447 45.6966 47.8705 45.4157C47.702 45.1292 47.6065 44.7893 47.584 44.396C47.5784 44.2837 47.5756 44.1573 47.5756 44.0168C47.5756 43.8708 47.5784 43.7443 47.584 43.6376C47.6065 43.2387 47.7076 42.8988 47.8874 42.6179C48.0671 42.337 48.3171 42.1208 48.6374 41.9691C48.9632 41.8174 49.3536 41.7415 49.8087 41.7415C50.2694 41.7415 50.6598 41.8174 50.98 41.9691C51.3059 42.1208 51.5587 42.337 51.7385 42.6179C51.9182 42.8988 52.0194 43.2387 52.0418 43.6376C52.0475 43.7443 52.0503 43.8708 52.0503 44.0168C52.0503 44.1573 52.0475 44.2837 52.0418 44.396C52.0194 44.7893 51.9211 45.1292 51.7469 45.4157C51.5784 45.6966 51.3312 45.9129 51.0053 46.0646C50.6851 46.2163 50.2862 46.2921 49.8087 46.2921ZM49.8087 45.264C50.0615 45.264 50.2441 45.1882 50.3565 45.0365C50.4744 44.8848 50.5418 44.6573 50.5587 44.3539C50.5643 44.2696 50.5671 44.1573 50.5671 44.0168C50.5671 43.8764 50.5643 43.764 50.5587 43.6797C50.5418 43.382 50.4744 43.1573 50.3565 43.0056C50.2441 42.8483 50.0615 42.7696 49.8087 42.7696C49.5615 42.7696 49.3789 42.8483 49.2609 43.0056C49.143 43.1573 49.0784 43.382 49.0671 43.6797C49.0615 43.764 49.0587 43.8764 49.0587 44.0168C49.0587 44.1573 49.0615 44.2696 49.0671 44.3539C49.0784 44.6573 49.143 44.8848 49.2609 45.0365C49.3789 45.1882 49.5615 45.264 49.8087 45.264ZM54.9521 46.2921C54.4802 46.2921 54.0813 46.2163 53.7555 46.0646C53.4353 45.9129 53.1881 45.6966 53.0139 45.4157C52.8454 45.1292 52.7499 44.7893 52.7274 44.396C52.7218 44.2837 52.719 44.1573 52.719 44.0168C52.719 43.8708 52.7218 43.7443 52.7274 43.6376C52.7499 43.2387 52.851 42.8988 53.0308 42.6179C53.2105 42.337 53.4605 42.1208 53.7808 41.9691C54.1066 41.8174 54.497 41.7415 54.9521 41.7415C55.4128 41.7415 55.8032 41.8174 56.1234 41.9691C56.4493 42.1208 56.7021 42.337 56.8819 42.6179C57.0616 42.8988 57.1628 43.2387 57.1852 43.6376C57.1909 43.7443 57.1937 43.8708 57.1937 44.0168C57.1937 44.1573 57.1909 44.2837 57.1852 44.396C57.1628 44.7893 57.0645 45.1292 56.8903 45.4157C56.7218 45.6966 56.4746 45.9129 56.1487 46.0646C55.8285 46.2163 55.4296 46.2921 54.9521 46.2921ZM54.9521 45.264C55.2049 45.264 55.3875 45.1882 55.4999 45.0365C55.6178 44.8848 55.6852 44.6573 55.7021 44.3539C55.7077 44.2696 55.7105 44.1573 55.7105 44.0168C55.7105 43.8764 55.7077 43.764 55.7021 43.6797C55.6852 43.382 55.6178 43.1573 55.4999 43.0056C55.3875 42.8483 55.2049 42.7696 54.9521 42.7696C54.7049 42.7696 54.5223 42.8483 54.4043 43.0056C54.2864 43.1573 54.2218 43.382 54.2105 43.6797C54.2049 43.764 54.2021 43.8764 54.2021 44.0168C54.2021 44.1573 54.2049 44.2696 54.2105 44.3539C54.2218 44.6573 54.2864 44.8848 54.4043 45.0365C54.5223 45.1882 54.7049 45.264 54.9521 45.264ZM58.2331 46.2078C58.1714 46.2078 58.1208 46.1882 58.0815 46.1488C58.0421 46.1095 58.0225 46.0589 58.0225 45.9972V40.4354C58.0225 40.3736 58.0421 40.323 58.0815 40.2837C58.1208 40.2444 58.1714 40.2247 58.2331 40.2247H59.2107C59.2669 40.2247 59.3146 40.2444 59.3539 40.2837C59.3989 40.323 59.4213 40.3736 59.4213 40.4354V43.2584L60.5927 41.9691C60.6264 41.9297 60.6629 41.896 60.7022 41.8679C60.7416 41.8399 60.7977 41.8258 60.8708 41.8258H62C62.0506 41.8258 62.0927 41.8455 62.1264 41.8848C62.1657 41.9185 62.1854 41.9606 62.1854 42.0112C62.1854 42.0337 62.1798 42.059 62.1685 42.087C62.1573 42.1151 62.1404 42.1376 62.118 42.1545L60.6011 43.7893L62.3286 45.8876C62.3736 45.9325 62.3961 45.9775 62.3961 46.0224C62.3961 46.073 62.3764 46.1179 62.3371 46.1573C62.3034 46.191 62.2584 46.2078 62.2022 46.2078H61.0477C60.9635 46.2078 60.9017 46.1938 60.8624 46.1657C60.823 46.132 60.7865 46.0983 60.7528 46.0646L59.4213 44.4634V45.9972C59.4213 46.0589 59.3989 46.1095 59.3539 46.1488C59.3146 46.1882 59.2669 46.2078 59.2107 46.2078H58.2331Z" fill="#3A7AD5"/>
<path d="M18.7472 51.2753C18.7307 51.2753 18.718 51.2708 18.709 51.2618C18.7 51.2513 18.6955 51.2386 18.6955 51.2236V49.7562C18.6955 49.7397 18.7 49.727 18.709 49.718C18.718 49.7075 18.7307 49.7022 18.7472 49.7022H19.3629C19.4753 49.7022 19.5667 49.721 19.6371 49.7584C19.709 49.7944 19.7614 49.8438 19.7944 49.9067C19.8288 49.9697 19.8461 50.0401 19.8461 50.118C19.8461 50.1794 19.8356 50.2326 19.8146 50.2775C19.7951 50.321 19.7704 50.3569 19.7404 50.3854C19.7105 50.4123 19.6813 50.4333 19.6528 50.4483C19.7112 50.4768 19.7629 50.5232 19.8079 50.5876C19.8543 50.652 19.8775 50.73 19.8775 50.8213C19.8775 50.9037 19.8588 50.9794 19.8213 51.0483C19.7839 51.1172 19.7277 51.1726 19.6528 51.2146C19.5794 51.255 19.488 51.2753 19.3787 51.2753H18.7472ZM18.9157 51.0932H19.3494C19.4468 51.0932 19.5217 51.067 19.5742 51.0146C19.6266 50.9622 19.6528 50.8977 19.6528 50.8213C19.6528 50.7419 19.6266 50.6768 19.5742 50.6258C19.5217 50.5734 19.4468 50.5472 19.3494 50.5472H18.9157V51.0932ZM18.9157 50.3674H19.3292C19.4251 50.3674 19.4978 50.3457 19.5472 50.3022C19.5966 50.2573 19.6213 50.1966 19.6213 50.1202C19.6213 50.0438 19.5966 49.9854 19.5472 49.9449C19.4978 49.9045 19.4251 49.8843 19.3292 49.8843H18.9157V50.3674ZM20.646 51.2977C20.5321 51.2977 20.437 51.276 20.3606 51.2326C20.2842 51.1891 20.2258 51.1292 20.1853 51.0528C20.1449 50.9749 20.1224 50.8865 20.1179 50.7876C20.1164 50.7622 20.1157 50.73 20.1157 50.691C20.1157 50.6506 20.1164 50.6183 20.1179 50.5944C20.1224 50.494 20.1449 50.4056 20.1853 50.3292C20.2273 50.2528 20.2864 50.1929 20.3628 50.1494C20.4393 50.106 20.5336 50.0843 20.646 50.0843C20.7584 50.0843 20.8527 50.106 20.9291 50.1494C21.0055 50.1929 21.064 50.2528 21.1044 50.3292C21.1464 50.4056 21.1696 50.494 21.1741 50.5944C21.1756 50.6183 21.1763 50.6506 21.1763 50.691C21.1763 50.73 21.1756 50.7622 21.1741 50.7876C21.1696 50.8865 21.1471 50.9749 21.1067 51.0528C21.0662 51.1292 21.0078 51.1891 20.9314 51.2326C20.855 51.276 20.7599 51.2977 20.646 51.2977ZM20.646 51.1247C20.7389 51.1247 20.813 51.0955 20.8685 51.0371C20.9239 50.9771 20.9539 50.8903 20.9584 50.7764C20.9599 50.7539 20.9606 50.7255 20.9606 50.691C20.9606 50.6565 20.9599 50.6281 20.9584 50.6056C20.9539 50.4917 20.9239 50.4056 20.8685 50.3472C20.813 50.2873 20.7389 50.2573 20.646 50.2573C20.5531 50.2573 20.4782 50.2873 20.4213 50.3472C20.3658 50.4056 20.3366 50.4917 20.3336 50.6056C20.3321 50.6281 20.3314 50.6565 20.3314 50.691C20.3314 50.7255 20.3321 50.7539 20.3336 50.7764C20.3366 50.8903 20.3658 50.9771 20.4213 51.0371C20.4782 51.0955 20.5531 51.1247 20.646 51.1247ZM21.9364 51.2977C21.8225 51.2977 21.7274 51.276 21.651 51.2326C21.5746 51.1891 21.5161 51.1292 21.4757 51.0528C21.4352 50.9749 21.4128 50.8865 21.4083 50.7876C21.4068 50.7622 21.406 50.73 21.406 50.691C21.406 50.6506 21.4068 50.6183 21.4083 50.5944C21.4128 50.494 21.4352 50.4056 21.4757 50.3292C21.5176 50.2528 21.5768 50.1929 21.6532 50.1494C21.7296 50.106 21.824 50.0843 21.9364 50.0843C22.0487 50.0843 22.1431 50.106 22.2195 50.1494C22.2959 50.1929 22.3543 50.2528 22.3948 50.3292C22.4367 50.4056 22.46 50.494 22.4645 50.5944C22.466 50.6183 22.4667 50.6506 22.4667 50.691C22.4667 50.73 22.466 50.7622 22.4645 50.7876C22.46 50.8865 22.4375 50.9749 22.397 51.0528C22.3566 51.1292 22.2982 51.1891 22.2218 51.2326C22.1454 51.276 22.0502 51.2977 21.9364 51.2977ZM21.9364 51.1247C22.0293 51.1247 22.1034 51.0955 22.1588 51.0371C22.2143 50.9771 22.2442 50.8903 22.2487 50.7764C22.2502 50.7539 22.251 50.7255 22.251 50.691C22.251 50.6565 22.2502 50.6281 22.2487 50.6056C22.2442 50.4917 22.2143 50.4056 22.1588 50.3472C22.1034 50.2873 22.0293 50.2573 21.9364 50.2573C21.8435 50.2573 21.7686 50.2873 21.7117 50.3472C21.6562 50.4056 21.627 50.4917 21.624 50.6056C21.6225 50.6281 21.6218 50.6565 21.6218 50.691C21.6218 50.7255 21.6225 50.7539 21.624 50.7764C21.627 50.8903 21.6562 50.9771 21.7117 51.0371C21.7686 51.0955 21.8435 51.1247 21.9364 51.1247ZM22.802 51.2753C22.787 51.2753 22.7743 51.2708 22.7638 51.2618C22.7548 51.2513 22.7503 51.2386 22.7503 51.2236V49.7315C22.7503 49.7165 22.7548 49.7045 22.7638 49.6955C22.7743 49.685 22.787 49.6798 22.802 49.6798H22.9076C22.9226 49.6798 22.9346 49.685 22.9436 49.6955C22.9541 49.7045 22.9593 49.7165 22.9593 49.7315V50.5135L23.402 50.1449C23.42 50.13 23.4335 50.1202 23.4425 50.1157C23.453 50.1097 23.4694 50.1067 23.4919 50.1067H23.611C23.6245 50.1067 23.6357 50.1112 23.6447 50.1202C23.6537 50.1292 23.6582 50.1404 23.6582 50.1539C23.6582 50.1599 23.656 50.1667 23.6515 50.1741C23.6485 50.1816 23.6417 50.1891 23.6312 50.1966L23.1121 50.6281L23.6874 51.1876C23.7054 51.2026 23.7144 51.2161 23.7144 51.2281C23.7144 51.2416 23.7099 51.2528 23.7009 51.2618C23.6919 51.2708 23.6807 51.2753 23.6672 51.2753H23.5503C23.5279 51.2753 23.5114 51.273 23.5009 51.2685C23.4904 51.2625 23.4769 51.252 23.4605 51.2371L22.9593 50.7584V51.2236C22.9593 51.2386 22.9541 51.2513 22.9436 51.2618C22.9346 51.2708 22.9226 51.2753 22.9076 51.2753H22.802ZM24.5166 51.2753C24.5001 51.2753 24.4874 51.2708 24.4784 51.2618C24.4694 51.2513 24.4649 51.2386 24.4649 51.2236V49.7562C24.4649 49.7397 24.4694 49.727 24.4784 49.718C24.4874 49.7075 24.5001 49.7022 24.5166 49.7022H25.0649C25.2342 49.7022 25.3683 49.7419 25.4671 49.8213C25.566 49.9007 25.6155 50.0183 25.6155 50.1741C25.6155 50.2895 25.5862 50.3839 25.5278 50.4573C25.4709 50.5292 25.393 50.5794 25.2941 50.6079L25.6402 51.2056C25.6447 51.2146 25.6469 51.2228 25.6469 51.2303C25.6469 51.2423 25.6417 51.2528 25.6312 51.2618C25.6222 51.2708 25.6117 51.2753 25.5997 51.2753H25.4919C25.4664 51.2753 25.4477 51.2685 25.4357 51.255C25.4237 51.2416 25.4132 51.2281 25.4042 51.2146L25.0784 50.6438H24.6851V51.2236C24.6851 51.2386 24.6799 51.2513 24.6694 51.2618C24.6604 51.2708 24.6477 51.2753 24.6312 51.2753H24.5166ZM24.6851 50.4528H25.0559C25.1683 50.4528 25.2522 50.4296 25.3076 50.3831C25.363 50.3352 25.3907 50.2648 25.3907 50.1719C25.3907 50.0805 25.363 50.0109 25.3076 49.9629C25.2537 49.915 25.1698 49.891 25.0559 49.891H24.6851V50.4528ZM26.3602 51.2977C26.2059 51.2977 26.083 51.2505 25.9917 51.1562C25.9003 51.0603 25.8501 50.93 25.8411 50.7652C25.8396 50.7457 25.8389 50.721 25.8389 50.691C25.8389 50.6595 25.8396 50.6341 25.8411 50.6146C25.8471 50.5082 25.8718 50.4153 25.9153 50.3359C25.9587 50.255 26.0179 50.1929 26.0928 50.1494C26.1692 50.106 26.2583 50.0843 26.3602 50.0843C26.4741 50.0843 26.5692 50.1082 26.6456 50.1562C26.7235 50.2041 26.7827 50.2723 26.8231 50.3607C26.8636 50.4491 26.8838 50.5524 26.8838 50.6708V50.709C26.8838 50.7255 26.8786 50.7382 26.8681 50.7472C26.8591 50.7562 26.8471 50.7607 26.8321 50.7607H26.0546C26.0546 50.7622 26.0546 50.7652 26.0546 50.7697C26.0546 50.7741 26.0546 50.7779 26.0546 50.7809C26.0576 50.8423 26.0711 50.9 26.095 50.9539C26.119 51.0064 26.1535 51.0491 26.1984 51.082C26.2433 51.115 26.2973 51.1314 26.3602 51.1314C26.4141 51.1314 26.4591 51.1232 26.495 51.1067C26.531 51.0903 26.5602 51.0723 26.5827 51.0528C26.6051 51.0318 26.6201 51.0161 26.6276 51.0056C26.6411 50.9861 26.6516 50.9749 26.6591 50.9719C26.6666 50.9674 26.6786 50.9652 26.695 50.9652H26.8029C26.8179 50.9652 26.8299 50.9697 26.8389 50.9786C26.8493 50.9861 26.8538 50.9974 26.8523 51.0123C26.8508 51.0348 26.8389 51.0625 26.8164 51.0955C26.7939 51.127 26.7617 51.1584 26.7198 51.1899C26.6778 51.2213 26.6269 51.2476 26.5669 51.2685C26.507 51.288 26.4381 51.2977 26.3602 51.2977ZM26.0546 50.6056H26.6703V50.5989C26.6703 50.5314 26.6576 50.4715 26.6321 50.4191C26.6081 50.3667 26.5729 50.3255 26.5265 50.2955C26.4801 50.264 26.4246 50.2483 26.3602 50.2483C26.2958 50.2483 26.2404 50.264 26.1939 50.2955C26.149 50.3255 26.1145 50.3667 26.0905 50.4191C26.0666 50.4715 26.0546 50.5314 26.0546 50.5989V50.6056ZM27.4783 51.2977C27.4034 51.2977 27.3353 51.2828 27.2738 51.2528C27.2124 51.2228 27.163 51.1824 27.1255 51.1314C27.0881 51.0805 27.0693 51.0228 27.0693 50.9584C27.0693 50.855 27.1113 50.7726 27.1952 50.7112C27.2791 50.6498 27.3884 50.6094 27.5233 50.5899L27.8581 50.5427V50.4775C27.8581 50.4056 27.8371 50.3494 27.7952 50.309C27.7547 50.2685 27.6881 50.2483 27.5952 50.2483C27.5278 50.2483 27.4731 50.2618 27.4311 50.2888C27.3907 50.3157 27.3622 50.3502 27.3458 50.3921C27.3368 50.4146 27.321 50.4258 27.2986 50.4258H27.1974C27.181 50.4258 27.1682 50.4213 27.1592 50.4123C27.1517 50.4019 27.148 50.3899 27.148 50.3764C27.148 50.3539 27.1562 50.3262 27.1727 50.2932C27.1907 50.2603 27.2177 50.2281 27.2536 50.1966C27.2896 50.1652 27.3353 50.1389 27.3907 50.118C27.4476 50.0955 27.5165 50.0843 27.5974 50.0843C27.6873 50.0843 27.763 50.0962 27.8244 50.1202C27.8858 50.1427 27.9338 50.1734 27.9682 50.2123C28.0042 50.2513 28.0296 50.2955 28.0446 50.3449C28.0611 50.3944 28.0693 50.4446 28.0693 50.4955V51.2236C28.0693 51.2386 28.0641 51.2513 28.0536 51.2618C28.0446 51.2708 28.0326 51.2753 28.0177 51.2753H27.9143C27.8978 51.2753 27.8851 51.2708 27.8761 51.2618C27.8671 51.2513 27.8626 51.2386 27.8626 51.2236V51.127C27.8431 51.1539 27.8169 51.1809 27.784 51.2079C27.751 51.2333 27.7098 51.255 27.6604 51.273C27.6109 51.2895 27.5502 51.2977 27.4783 51.2977ZM27.5255 51.1292C27.587 51.1292 27.6431 51.1165 27.6941 51.091C27.745 51.064 27.7847 51.0228 27.8132 50.9674C27.8431 50.912 27.8581 50.8423 27.8581 50.7584V50.6955L27.5974 50.7337C27.4911 50.7487 27.4109 50.7741 27.357 50.8101C27.3031 50.8446 27.2761 50.8888 27.2761 50.9427C27.2761 50.9846 27.2881 51.0198 27.312 51.0483C27.3375 51.0753 27.369 51.0955 27.4064 51.109C27.4454 51.1225 27.4851 51.1292 27.5255 51.1292ZM28.8194 51.2977C28.737 51.2977 28.6658 51.2835 28.6059 51.255C28.546 51.2251 28.4965 51.1854 28.4576 51.1359C28.4201 51.085 28.3916 51.0273 28.3722 50.9629C28.3542 50.8985 28.3437 50.8303 28.3407 50.7584C28.3392 50.7344 28.3385 50.712 28.3385 50.691C28.3385 50.67 28.3392 50.6476 28.3407 50.6236C28.3437 50.5532 28.3542 50.4858 28.3722 50.4213C28.3916 50.3569 28.4201 50.2992 28.4576 50.2483C28.4965 50.1974 28.546 50.1577 28.6059 50.1292C28.6658 50.0992 28.737 50.0843 28.8194 50.0843C28.9078 50.0843 28.9812 50.1 29.0396 50.1315C29.098 50.1629 29.146 50.2019 29.1834 50.2483V49.7315C29.1834 49.7165 29.1879 49.7045 29.1969 49.6955C29.2074 49.685 29.2201 49.6798 29.2351 49.6798H29.343C29.3579 49.6798 29.3699 49.685 29.3789 49.6955C29.3894 49.7045 29.3946 49.7165 29.3946 49.7315V51.2236C29.3946 51.2386 29.3894 51.2513 29.3789 51.2618C29.3699 51.2708 29.3579 51.2753 29.343 51.2753H29.2418C29.2254 51.2753 29.2126 51.2708 29.2036 51.2618C29.1946 51.2513 29.1901 51.2386 29.1901 51.2236V51.1292C29.1527 51.1771 29.104 51.2176 29.0441 51.2505C28.9842 51.282 28.9092 51.2977 28.8194 51.2977ZM28.8666 51.1157C28.9415 51.1157 29.0014 51.0985 29.0463 51.064C29.0913 51.0296 29.125 50.9861 29.1475 50.9337C29.1699 50.8798 29.1819 50.8251 29.1834 50.7697C29.1849 50.7457 29.1857 50.7172 29.1857 50.6843C29.1857 50.6498 29.1849 50.6206 29.1834 50.5966C29.1819 50.5442 29.1692 50.4925 29.1452 50.4416C29.1227 50.3906 29.0883 50.3487 29.0418 50.3157C28.9969 50.2828 28.9385 50.2663 28.8666 50.2663C28.7901 50.2663 28.7295 50.2835 28.6845 50.318C28.6396 50.3509 28.6074 50.3951 28.5879 50.4506C28.5684 50.5045 28.5572 50.5629 28.5542 50.6258C28.5527 50.6693 28.5527 50.7127 28.5542 50.7562C28.5572 50.8191 28.5684 50.8783 28.5879 50.9337C28.6074 50.9876 28.6396 51.0318 28.6845 51.0663C28.7295 51.0992 28.7901 51.1157 28.8666 51.1157ZM29.7805 51.2753C29.7656 51.2753 29.7528 51.2708 29.7423 51.2618C29.7334 51.2513 29.7289 51.2386 29.7289 51.2236V50.1584C29.7289 50.1434 29.7334 50.1315 29.7423 50.1225C29.7528 50.112 29.7656 50.1067 29.7805 50.1067H29.8884C29.9034 50.1067 29.9154 50.112 29.9244 50.1225C29.9334 50.1315 29.9378 50.1434 29.9378 50.1584V51.2236C29.9378 51.2386 29.9334 51.2513 29.9244 51.2618C29.9154 51.2708 29.9034 51.2753 29.8884 51.2753H29.7805ZM29.7626 49.8888C29.7476 49.8888 29.7349 49.8843 29.7244 49.8753C29.7154 49.8648 29.7109 49.8521 29.7109 49.8371V49.7157C29.7109 49.7007 29.7154 49.6888 29.7244 49.6798C29.7349 49.6693 29.7476 49.664 29.7626 49.664H29.9041C29.9191 49.664 29.9311 49.6693 29.9401 49.6798C29.9506 49.6888 29.9558 49.7007 29.9558 49.7157V49.8371C29.9558 49.8521 29.9506 49.8648 29.9401 49.8753C29.9311 49.8843 29.9191 49.8888 29.9041 49.8888H29.7626ZM30.3467 51.2753C30.3317 51.2753 30.319 51.2708 30.3085 51.2618C30.2995 51.2513 30.295 51.2386 30.295 51.2236V50.1584C30.295 50.1434 30.2995 50.1315 30.3085 50.1225C30.319 50.112 30.3317 50.1067 30.3467 50.1067H30.4523C30.4673 50.1067 30.4793 50.112 30.4883 50.1225C30.4988 50.1315 30.504 50.1434 30.504 50.1584V50.2573C30.543 50.2064 30.5917 50.1652 30.6501 50.1337C30.71 50.1007 30.7864 50.0843 30.8793 50.0843C30.9767 50.0843 31.0591 50.106 31.1265 50.1494C31.1954 50.1914 31.2471 50.2506 31.2816 50.327C31.316 50.4019 31.3332 50.4895 31.3332 50.5899V51.2236C31.3332 51.2386 31.3287 51.2513 31.3198 51.2618C31.3108 51.2708 31.2988 51.2753 31.2838 51.2753H31.1714C31.1565 51.2753 31.1437 51.2708 31.1332 51.2618C31.1243 51.2513 31.1198 51.2386 31.1198 51.2236V50.6011C31.1198 50.4962 31.0943 50.4146 31.0434 50.3562C30.9924 50.2962 30.9175 50.2663 30.8186 50.2663C30.7258 50.2663 30.6508 50.2962 30.5939 50.3562C30.5385 50.4146 30.5108 50.4962 30.5108 50.6011V51.2236C30.5108 51.2386 30.5055 51.2513 30.495 51.2618C30.4861 51.2708 30.4741 51.2753 30.4591 51.2753H30.3467ZM32.1365 51.7696C32.0346 51.7696 31.9507 51.7562 31.8848 51.7292C31.8204 51.7022 31.7694 51.6693 31.732 51.6303C31.696 51.5929 31.6698 51.5547 31.6533 51.5157C31.6384 51.4783 31.6301 51.4483 31.6286 51.4258C31.6271 51.4108 31.6316 51.3981 31.6421 51.3876C31.6541 51.3771 31.6668 51.3719 31.6803 51.3719H31.7882C31.8017 51.3719 31.8129 51.3749 31.8219 51.3809C31.8309 51.3869 31.8384 51.3996 31.8444 51.4191C31.8533 51.4416 31.8668 51.4663 31.8848 51.4932C31.9028 51.5217 31.9305 51.5457 31.968 51.5652C32.0054 51.5861 32.0578 51.5966 32.1253 51.5966C32.1957 51.5966 32.2548 51.5869 32.3028 51.5674C32.3507 51.5494 32.3867 51.5165 32.4106 51.4685C32.4361 51.4221 32.4488 51.3577 32.4488 51.2753V51.1225C32.4129 51.1689 32.3657 51.2079 32.3073 51.2393C32.2488 51.2693 32.1754 51.2843 32.0871 51.2843C32.0032 51.2843 31.9312 51.27 31.8713 51.2416C31.8114 51.2116 31.762 51.1719 31.723 51.1225C31.6856 51.0715 31.6571 51.0138 31.6376 50.9494C31.6196 50.885 31.6092 50.8176 31.6062 50.7472C31.6047 50.7052 31.6047 50.664 31.6062 50.6236C31.6092 50.5532 31.6196 50.4858 31.6376 50.4213C31.6571 50.3569 31.6856 50.2992 31.723 50.2483C31.762 50.1974 31.8114 50.1577 31.8713 50.1292C31.9312 50.0992 32.0032 50.0843 32.0871 50.0843C32.1769 50.0843 32.2511 50.1015 32.3095 50.1359C32.3694 50.1689 32.4181 50.2094 32.4556 50.2573V50.1607C32.4556 50.1457 32.4601 50.1329 32.4691 50.1225C32.4796 50.112 32.4923 50.1067 32.5073 50.1067H32.6106C32.6256 50.1067 32.6384 50.112 32.6488 50.1225C32.6593 50.1329 32.6646 50.1457 32.6646 50.1607V51.2505C32.6646 51.3509 32.6474 51.4401 32.6129 51.518C32.5799 51.5959 32.5245 51.6573 32.4466 51.7022C32.3702 51.7472 32.2668 51.7696 32.1365 51.7696ZM32.132 51.1045C32.2069 51.1045 32.2668 51.0873 32.3118 51.0528C32.3582 51.0183 32.3919 50.9749 32.4129 50.9225C32.4354 50.87 32.4474 50.8168 32.4488 50.7629C32.4503 50.7419 32.4511 50.7165 32.4511 50.6865C32.4511 50.655 32.4503 50.6288 32.4488 50.6079C32.4474 50.5539 32.4354 50.5007 32.4129 50.4483C32.3919 50.3959 32.3582 50.3524 32.3118 50.318C32.2668 50.2835 32.2069 50.2663 32.132 50.2663C32.0571 50.2663 31.9972 50.2835 31.9522 50.318C31.9073 50.3509 31.8751 50.3951 31.8556 50.4506C31.8361 50.5045 31.8249 50.5629 31.8219 50.6258C31.8204 50.6648 31.8204 50.7045 31.8219 50.7449C31.8249 50.8079 31.8361 50.867 31.8556 50.9225C31.8751 50.9764 31.9073 51.0206 31.9522 51.055C31.9972 51.088 32.0571 51.1045 32.132 51.1045ZM34.0282 51.2977C33.9248 51.2977 33.8342 51.279 33.7563 51.2416C33.6784 51.2041 33.6177 51.1524 33.5742 51.0865C33.5308 51.0191 33.5091 50.9419 33.5091 50.855C33.5091 50.7861 33.5233 50.7262 33.5518 50.6753C33.5817 50.6228 33.6207 50.5764 33.6686 50.5359C33.7166 50.4955 33.769 50.4588 33.8259 50.4258C33.7555 50.3509 33.7053 50.285 33.6754 50.2281C33.6469 50.1712 33.6327 50.112 33.6327 50.0506C33.6327 49.9831 33.6499 49.9217 33.6843 49.8663C33.7188 49.8109 33.7675 49.7659 33.8304 49.7315C33.8933 49.697 33.9675 49.6798 34.0529 49.6798C34.1353 49.6798 34.2072 49.6962 34.2686 49.7292C34.3315 49.7622 34.3802 49.8064 34.4147 49.8618C34.4491 49.9172 34.4664 49.9794 34.4664 50.0483C34.4664 50.1142 34.4506 50.1719 34.4192 50.2213C34.3877 50.2708 34.3458 50.315 34.2933 50.3539C34.2424 50.3929 34.1862 50.4296 34.1248 50.464L34.5068 50.8393C34.5308 50.7974 34.5533 50.7487 34.5742 50.6932C34.5967 50.6378 34.6139 50.5726 34.6259 50.4977C34.6304 50.4678 34.6469 50.4528 34.6754 50.4528H34.7742C34.7877 50.4528 34.799 50.4573 34.8079 50.4663C34.8169 50.4753 34.8214 50.4865 34.8214 50.5C34.8199 50.5329 34.8147 50.5682 34.8057 50.6056C34.7982 50.6431 34.7862 50.6828 34.7697 50.7247C34.7548 50.7667 34.736 50.8086 34.7136 50.8506C34.6926 50.891 34.6679 50.9314 34.6394 50.9719L34.8686 51.1989C34.8821 51.2108 34.8888 51.2221 34.8888 51.2326C34.8888 51.2461 34.8851 51.2565 34.8776 51.264C34.8701 51.2715 34.8589 51.2753 34.8439 51.2753H34.7181C34.7031 51.2753 34.6903 51.273 34.6798 51.2685C34.6709 51.264 34.6634 51.2588 34.6574 51.2528L34.5091 51.1067C34.4506 51.1637 34.3817 51.2101 34.3023 51.2461C34.2229 51.2805 34.1315 51.2977 34.0282 51.2977ZM34.0282 51.118C34.0881 51.118 34.148 51.106 34.2079 51.082C34.2679 51.0565 34.3233 51.0191 34.3742 50.9697L33.954 50.5584C33.8896 50.5944 33.8334 50.6356 33.7855 50.682C33.739 50.727 33.7158 50.7831 33.7158 50.8506C33.7158 50.9075 33.73 50.9562 33.7585 50.9966C33.7885 51.0356 33.8274 51.0655 33.8754 51.0865C33.9233 51.1075 33.9742 51.118 34.0282 51.118ZM34.0012 50.3337C34.0491 50.3067 34.0933 50.2798 34.1338 50.2528C34.1757 50.2258 34.2087 50.1959 34.2327 50.1629C34.2581 50.13 34.2709 50.0925 34.2709 50.0506C34.2709 49.9906 34.2499 49.9427 34.2079 49.9067C34.166 49.8708 34.1143 49.8528 34.0529 49.8528C33.9945 49.8528 33.9428 49.8708 33.8978 49.9067C33.8544 49.9412 33.8327 49.9899 33.8327 50.0528C33.8327 50.0783 33.8372 50.1045 33.8461 50.1315C33.8566 50.1569 33.8739 50.1854 33.8978 50.2168C33.9218 50.2483 33.9563 50.2873 34.0012 50.3337ZM35.7415 51.2753C35.7251 51.2753 35.7123 51.2708 35.7033 51.2618C35.6943 51.2513 35.6899 51.2386 35.6899 51.2236V49.7562C35.6899 49.7397 35.6943 49.727 35.7033 49.718C35.7123 49.7075 35.7251 49.7022 35.7415 49.7022H36.3123C36.4232 49.7022 36.5191 49.7202 36.6 49.7562C36.6824 49.7921 36.746 49.8461 36.791 49.918C36.8359 49.9884 36.8584 50.0768 36.8584 50.1831C36.8584 50.2895 36.8359 50.3779 36.791 50.4483C36.746 50.5187 36.6824 50.5719 36.6 50.6079C36.5191 50.6438 36.4232 50.6618 36.3123 50.6618H35.9146V51.2236C35.9146 51.2386 35.9093 51.2513 35.8988 51.2618C35.8899 51.2708 35.8771 51.2753 35.8606 51.2753H35.7415ZM35.9123 50.473H36.3011C36.4119 50.473 36.4951 50.4483 36.5505 50.3989C36.606 50.3494 36.6337 50.2775 36.6337 50.1831C36.6337 50.0903 36.6067 50.0183 36.5528 49.9674C36.4988 49.9165 36.4149 49.891 36.3011 49.891H35.9123V50.473ZM37.5384 51.2977C37.4425 51.2977 37.3609 51.2768 37.2935 51.2348C37.2275 51.1914 37.1773 51.1314 37.1429 51.055C37.1084 50.9786 37.0912 50.891 37.0912 50.7921V50.1584C37.0912 50.1434 37.0957 50.1315 37.1047 50.1225C37.1152 50.112 37.1279 50.1067 37.1429 50.1067H37.2552C37.2702 50.1067 37.2822 50.112 37.2912 50.1225C37.3017 50.1315 37.3069 50.1434 37.3069 50.1584V50.7809C37.3069 51.0041 37.4043 51.1157 37.5991 51.1157C37.692 51.1157 37.7661 51.0865 37.8215 51.0281C37.8785 50.9682 37.9069 50.8858 37.9069 50.7809V50.1584C37.9069 50.1434 37.9114 50.1315 37.9204 50.1225C37.9309 50.112 37.9436 50.1067 37.9586 50.1067H38.0687C38.0852 50.1067 38.0979 50.112 38.1069 50.1225C38.1159 50.1315 38.1204 50.1434 38.1204 50.1584V51.2236C38.1204 51.2386 38.1159 51.2513 38.1069 51.2618C38.0979 51.2708 38.0852 51.2753 38.0687 51.2753H37.9654C37.9504 51.2753 37.9376 51.2708 37.9272 51.2618C37.9182 51.2513 37.9137 51.2386 37.9137 51.2236V51.1247C37.8732 51.1771 37.8238 51.2191 37.7654 51.2505C37.7084 51.282 37.6328 51.2977 37.5384 51.2977ZM39.0318 51.2977C38.9419 51.2977 38.867 51.282 38.8071 51.2505C38.7471 51.2176 38.6992 51.1771 38.6633 51.1292V51.2236C38.6633 51.2386 38.658 51.2513 38.6475 51.2618C38.6385 51.2708 38.6265 51.2753 38.6116 51.2753H38.5082C38.4932 51.2753 38.4805 51.2708 38.47 51.2618C38.461 51.2513 38.4565 51.2386 38.4565 51.2236V49.7315C38.4565 49.7165 38.461 49.7045 38.47 49.6955C38.4805 49.685 38.4932 49.6798 38.5082 49.6798H38.6161C38.6325 49.6798 38.6453 49.685 38.6543 49.6955C38.6633 49.7045 38.6677 49.7165 38.6677 49.7315V50.2483C38.7052 50.2019 38.7531 50.1629 38.8116 50.1315C38.8715 50.1 38.9449 50.0843 39.0318 50.0843C39.1157 50.0843 39.1868 50.0992 39.2453 50.1292C39.3052 50.1577 39.3539 50.1974 39.3913 50.2483C39.4303 50.2992 39.4595 50.3569 39.479 50.4213C39.4985 50.4858 39.5089 50.5532 39.5104 50.6236C39.5119 50.6476 39.5127 50.67 39.5127 50.691C39.5127 50.712 39.5119 50.7344 39.5104 50.7584C39.5089 50.8303 39.4985 50.8985 39.479 50.9629C39.4595 51.0273 39.4303 51.085 39.3913 51.1359C39.3539 51.1854 39.3052 51.2251 39.2453 51.255C39.1868 51.2835 39.1157 51.2977 39.0318 51.2977ZM38.9846 51.1157C39.0625 51.1157 39.1232 51.0992 39.1666 51.0663C39.2116 51.0318 39.2438 50.9876 39.2633 50.9337C39.2827 50.8783 39.294 50.8191 39.297 50.7562C39.2985 50.7127 39.2985 50.6693 39.297 50.6258C39.294 50.5629 39.2827 50.5045 39.2633 50.4506C39.2438 50.3951 39.2116 50.3509 39.1666 50.318C39.1232 50.2835 39.0625 50.2663 38.9846 50.2663C38.9142 50.2663 38.8558 50.2828 38.8093 50.3157C38.7629 50.3487 38.7277 50.3906 38.7037 50.4416C38.6812 50.4925 38.6692 50.5442 38.6677 50.5966C38.6662 50.6206 38.6655 50.6498 38.6655 50.6843C38.6655 50.7172 38.6662 50.7457 38.6677 50.7697C38.6707 50.8251 38.6827 50.8798 38.7037 50.9337C38.7262 50.9861 38.7599 51.0296 38.8048 51.064C38.8513 51.0985 38.9112 51.1157 38.9846 51.1157ZM39.8447 51.2753C39.8297 51.2753 39.8169 51.2708 39.8065 51.2618C39.7975 51.2513 39.793 51.2386 39.793 51.2236V49.7315C39.793 49.7165 39.7975 49.7045 39.8065 49.6955C39.8169 49.685 39.8297 49.6798 39.8447 49.6798H39.9503C39.9668 49.6798 39.9795 49.685 39.9885 49.6955C39.9975 49.7045 40.002 49.7165 40.002 49.7315V51.2236C40.002 51.2386 39.9975 51.2513 39.9885 51.2618C39.9795 51.2708 39.9668 51.2753 39.9503 51.2753H39.8447ZM40.4108 51.2753C40.3958 51.2753 40.3831 51.2708 40.3726 51.2618C40.3636 51.2513 40.3591 51.2386 40.3591 51.2236V50.1584C40.3591 50.1434 40.3636 50.1315 40.3726 50.1225C40.3831 50.112 40.3958 50.1067 40.4108 50.1067H40.5187C40.5336 50.1067 40.5456 50.112 40.5546 50.1225C40.5636 50.1315 40.5681 50.1434 40.5681 50.1584V51.2236C40.5681 51.2386 40.5636 51.2513 40.5546 51.2618C40.5456 51.2708 40.5336 51.2753 40.5187 51.2753H40.4108ZM40.3928 49.8888C40.3778 49.8888 40.3651 49.8843 40.3546 49.8753C40.3456 49.8648 40.3411 49.8521 40.3411 49.8371V49.7157C40.3411 49.7007 40.3456 49.6888 40.3546 49.6798C40.3651 49.6693 40.3778 49.664 40.3928 49.664H40.5344C40.5494 49.664 40.5614 49.6693 40.5703 49.6798C40.5808 49.6888 40.5861 49.7007 40.5861 49.7157V49.8371C40.5861 49.8521 40.5808 49.8648 40.5703 49.8753C40.5614 49.8843 40.5494 49.8888 40.5344 49.8888H40.3928ZM41.321 51.2977C41.2371 51.2977 41.1652 51.2873 41.1053 51.2663C41.0453 51.2453 40.9967 51.2198 40.9592 51.1899C40.9218 51.1599 40.8933 51.13 40.8738 51.1C40.8558 51.07 40.8461 51.0461 40.8446 51.0281C40.8431 51.0116 40.8483 50.9989 40.8603 50.9899C40.8723 50.9809 40.8843 50.9764 40.8963 50.9764H40.9952C41.0042 50.9764 41.0109 50.9779 41.0154 50.9809C41.0214 50.9824 41.0289 50.9884 41.0379 50.9989C41.0573 51.0198 41.0791 51.0408 41.103 51.0618C41.127 51.0828 41.1562 51.1 41.1907 51.1135C41.2266 51.127 41.2708 51.1337 41.3233 51.1337C41.3997 51.1337 41.4626 51.1195 41.512 51.091C41.5615 51.061 41.5862 51.0176 41.5862 50.9607C41.5862 50.9232 41.5757 50.8932 41.5547 50.8708C41.5352 50.8483 41.4993 50.8281 41.4468 50.8101C41.3959 50.7921 41.3255 50.7734 41.2356 50.7539C41.1457 50.7329 41.0746 50.7075 41.0221 50.6775C40.9697 50.6461 40.9322 50.6094 40.9098 50.5674C40.8873 50.524 40.8761 50.4753 40.8761 50.4213C40.8761 50.3659 40.8925 50.3127 40.9255 50.2618C40.9585 50.2094 41.0064 50.1667 41.0693 50.1337C41.1337 50.1007 41.2139 50.0843 41.3098 50.0843C41.3877 50.0843 41.4543 50.094 41.5098 50.1135C41.5652 50.1329 41.6109 50.1577 41.6468 50.1876C41.6828 50.2161 41.7098 50.2446 41.7277 50.273C41.7457 50.3015 41.7555 50.3255 41.757 50.3449C41.7585 50.3599 41.754 50.3726 41.7435 50.3831C41.733 50.3921 41.721 50.3966 41.7075 50.3966H41.6131C41.6027 50.3966 41.5937 50.3944 41.5862 50.3899C41.5802 50.3854 41.5742 50.3801 41.5682 50.3741C41.5532 50.3547 41.5352 50.3352 41.5143 50.3157C41.4948 50.2962 41.4686 50.2805 41.4356 50.2685C41.4042 50.255 41.3622 50.2483 41.3098 50.2483C41.2349 50.2483 41.1787 50.264 41.1412 50.2955C41.1038 50.327 41.0851 50.3667 41.0851 50.4146C41.0851 50.4431 41.0933 50.4685 41.1098 50.491C41.1262 50.5135 41.1577 50.5337 41.2042 50.5517C41.2506 50.5697 41.3195 50.5891 41.4109 50.6101C41.5098 50.6296 41.5877 50.6558 41.6446 50.6888C41.7015 50.7217 41.742 50.7599 41.7659 50.8034C41.7899 50.8468 41.8019 50.897 41.8019 50.9539C41.8019 51.0168 41.7832 51.0745 41.7457 51.127C41.7098 51.1794 41.6558 51.2213 41.5839 51.2528C41.5135 51.2828 41.4259 51.2977 41.321 51.2977ZM42.116 51.2753C42.101 51.2753 42.0883 51.2708 42.0778 51.2618C42.0688 51.2513 42.0643 51.2386 42.0643 51.2236V49.7315C42.0643 49.7165 42.0688 49.7045 42.0778 49.6955C42.0883 49.685 42.101 49.6798 42.116 49.6798H42.2283C42.2448 49.6798 42.2576 49.685 42.2665 49.6955C42.2755 49.7045 42.28 49.7165 42.28 49.7315V50.255C42.3205 50.2041 42.3699 50.1629 42.4283 50.1315C42.4868 50.1 42.5609 50.0843 42.6508 50.0843C42.7482 50.0843 42.8306 50.106 42.898 50.1494C42.9669 50.1914 43.0186 50.2506 43.0531 50.327C43.089 50.4019 43.107 50.4895 43.107 50.5899V51.2236C43.107 51.2386 43.1025 51.2513 43.0935 51.2618C43.0845 51.2708 43.0718 51.2753 43.0553 51.2753H42.9429C42.928 51.2753 42.9152 51.2708 42.9047 51.2618C42.8958 51.2513 42.8913 51.2386 42.8913 51.2236V50.6011C42.8913 50.4962 42.8658 50.4146 42.8149 50.3562C42.7639 50.2962 42.689 50.2663 42.5901 50.2663C42.4973 50.2663 42.4224 50.2962 42.3654 50.3562C42.3085 50.4146 42.28 50.4962 42.28 50.6011V51.2236C42.28 51.2386 42.2755 51.2513 42.2665 51.2618C42.2576 51.2708 42.2448 51.2753 42.2283 51.2753H42.116ZM43.4831 51.2753C43.4681 51.2753 43.4554 51.2708 43.4449 51.2618C43.4359 51.2513 43.4314 51.2386 43.4314 51.2236V50.1584C43.4314 50.1434 43.4359 50.1315 43.4449 50.1225C43.4554 50.112 43.4681 50.1067 43.4831 50.1067H43.591C43.606 50.1067 43.6179 50.112 43.6269 50.1225C43.6359 50.1315 43.6404 50.1434 43.6404 50.1584V51.2236C43.6404 51.2386 43.6359 51.2513 43.6269 51.2618C43.6179 51.2708 43.606 51.2753 43.591 51.2753H43.4831ZM43.4651 49.8888C43.4502 49.8888 43.4374 49.8843 43.4269 49.8753C43.4179 49.8648 43.4135 49.8521 43.4135 49.8371V49.7157C43.4135 49.7007 43.4179 49.6888 43.4269 49.6798C43.4374 49.6693 43.4502 49.664 43.4651 49.664H43.6067C43.6217 49.664 43.6337 49.6693 43.6427 49.6798C43.6532 49.6888 43.6584 49.7007 43.6584 49.7157V49.8371C43.6584 49.8521 43.6532 49.8648 43.6427 49.8753C43.6337 49.8843 43.6217 49.8888 43.6067 49.8888H43.4651ZM44.0493 51.2753C44.0343 51.2753 44.0216 51.2708 44.0111 51.2618C44.0021 51.2513 43.9976 51.2386 43.9976 51.2236V50.1584C43.9976 50.1434 44.0021 50.1315 44.0111 50.1225C44.0216 50.112 44.0343 50.1067 44.0493 50.1067H44.1549C44.1699 50.1067 44.1819 50.112 44.1909 50.1225C44.2014 50.1315 44.2066 50.1434 44.2066 50.1584V50.2573C44.2456 50.2064 44.2942 50.1652 44.3527 50.1337C44.4126 50.1007 44.489 50.0843 44.5819 50.0843C44.6793 50.0843 44.7617 50.106 44.8291 50.1494C44.898 50.1914 44.9497 50.2506 44.9841 50.327C45.0186 50.4019 45.0358 50.4895 45.0358 50.5899V51.2236C45.0358 51.2386 45.0313 51.2513 45.0223 51.2618C45.0133 51.2708 45.0014 51.2753 44.9864 51.2753H44.874C44.859 51.2753 44.8463 51.2708 44.8358 51.2618C44.8268 51.2513 44.8223 51.2386 44.8223 51.2236V50.6011C44.8223 50.4962 44.7969 50.4146 44.7459 50.3562C44.695 50.2962 44.6201 50.2663 44.5212 50.2663C44.4283 50.2663 44.3534 50.2962 44.2965 50.3562C44.2411 50.4146 44.2133 50.4962 44.2133 50.6011V51.2236C44.2133 51.2386 44.2081 51.2513 44.1976 51.2618C44.1886 51.2708 44.1766 51.2753 44.1617 51.2753H44.0493ZM45.8391 51.7696C45.7372 51.7696 45.6533 51.7562 45.5874 51.7292C45.523 51.7022 45.472 51.6693 45.4346 51.6303C45.3986 51.5929 45.3724 51.5547 45.3559 51.5157C45.3409 51.4783 45.3327 51.4483 45.3312 51.4258C45.3297 51.4108 45.3342 51.3981 45.3447 51.3876C45.3567 51.3771 45.3694 51.3719 45.3829 51.3719H45.4907C45.5042 51.3719 45.5155 51.3749 45.5245 51.3809C45.5334 51.3869 45.5409 51.3996 45.5469 51.4191C45.5559 51.4416 45.5694 51.4663 45.5874 51.4932C45.6054 51.5217 45.6331 51.5457 45.6705 51.5652C45.708 51.5861 45.7604 51.5966 45.8278 51.5966C45.8982 51.5966 45.9574 51.5869 46.0054 51.5674C46.0533 51.5494 46.0892 51.5165 46.1132 51.4685C46.1387 51.4221 46.1514 51.3577 46.1514 51.2753V51.1225C46.1155 51.1689 46.0683 51.2079 46.0098 51.2393C45.9514 51.2693 45.878 51.2843 45.7896 51.2843C45.7057 51.2843 45.6338 51.27 45.5739 51.2416C45.514 51.2116 45.4645 51.1719 45.4256 51.1225C45.3881 51.0715 45.3597 51.0138 45.3402 50.9494C45.3222 50.885 45.3117 50.8176 45.3087 50.7472C45.3072 50.7052 45.3072 50.664 45.3087 50.6236C45.3117 50.5532 45.3222 50.4858 45.3402 50.4213C45.3597 50.3569 45.3881 50.2992 45.4256 50.2483C45.4645 50.1974 45.514 50.1577 45.5739 50.1292C45.6338 50.0992 45.7057 50.0843 45.7896 50.0843C45.8795 50.0843 45.9537 50.1015 46.0121 50.1359C46.072 50.1689 46.1207 50.2094 46.1582 50.2573V50.1607C46.1582 50.1457 46.1627 50.1329 46.1716 50.1225C46.1821 50.112 46.1949 50.1067 46.2098 50.1067H46.3132C46.3282 50.1067 46.3409 50.112 46.3514 50.1225C46.3619 50.1329 46.3672 50.1457 46.3672 50.1607V51.2505C46.3672 51.3509 46.3499 51.4401 46.3155 51.518C46.2825 51.5959 46.2271 51.6573 46.1492 51.7022C46.0728 51.7472 45.9694 51.7696 45.8391 51.7696ZM45.8346 51.1045C45.9095 51.1045 45.9694 51.0873 46.0143 51.0528C46.0608 51.0183 46.0945 50.9749 46.1155 50.9225C46.1379 50.87 46.1499 50.8168 46.1514 50.7629C46.1529 50.7419 46.1537 50.7165 46.1537 50.6865C46.1537 50.655 46.1529 50.6288 46.1514 50.6079C46.1499 50.5539 46.1379 50.5007 46.1155 50.4483C46.0945 50.3959 46.0608 50.3524 46.0143 50.318C45.9694 50.2835 45.9095 50.2663 45.8346 50.2663C45.7597 50.2663 45.6997 50.2835 45.6548 50.318C45.6098 50.3509 45.5776 50.3951 45.5582 50.4506C45.5387 50.5045 45.5275 50.5629 45.5245 50.6258C45.523 50.6648 45.523 50.7045 45.5245 50.7449C45.5275 50.8079 45.5387 50.867 45.5582 50.9225C45.5776 50.9764 45.6098 51.0206 45.6548 51.055C45.6997 51.088 45.7597 51.1045 45.8346 51.1045ZM47.333 51.2753C47.3165 51.2753 47.3038 51.2708 47.2948 51.2618C47.2858 51.2513 47.2813 51.2386 47.2813 51.2236V49.7562C47.2813 49.7397 47.2858 49.727 47.2948 49.718C47.3038 49.7075 47.3165 49.7022 47.333 49.7022H47.9038C48.0146 49.7022 48.1105 49.7202 48.1914 49.7562C48.2738 49.7921 48.3375 49.8461 48.3824 49.918C48.4274 49.9884 48.4498 50.0768 48.4498 50.1831C48.4498 50.2895 48.4274 50.3779 48.3824 50.4483C48.3375 50.5187 48.2738 50.5719 48.1914 50.6079C48.1105 50.6438 48.0146 50.6618 47.9038 50.6618H47.506V51.2236C47.506 51.2386 47.5008 51.2513 47.4903 51.2618C47.4813 51.2708 47.4686 51.2753 47.4521 51.2753H47.333ZM47.5038 50.473H47.8925C48.0034 50.473 48.0865 50.4483 48.142 50.3989C48.1974 50.3494 48.2251 50.2775 48.2251 50.1831C48.2251 50.0903 48.1982 50.0183 48.1442 49.9674C48.0903 49.9165 48.0064 49.891 47.8925 49.891H47.5038V50.473ZM48.7478 51.2753C48.7328 51.2753 48.7201 51.2708 48.7096 51.2618C48.7006 51.2513 48.6961 51.2386 48.6961 51.2236V49.7315C48.6961 49.7165 48.7006 49.7045 48.7096 49.6955C48.7201 49.685 48.7328 49.6798 48.7478 49.6798H48.8534C48.8699 49.6798 48.8826 49.685 48.8916 49.6955C48.9006 49.7045 48.9051 49.7165 48.9051 49.7315V51.2236C48.9051 51.2386 48.9006 51.2513 48.8916 51.2618C48.8826 51.2708 48.8699 51.2753 48.8534 51.2753H48.7478ZM49.5662 51.2977C49.4913 51.2977 49.4231 51.2828 49.3617 51.2528C49.3002 51.2228 49.2508 51.1824 49.2134 51.1314C49.1759 51.0805 49.1572 51.0228 49.1572 50.9584C49.1572 50.855 49.1991 50.7726 49.283 50.7112C49.3669 50.6498 49.4763 50.6094 49.6111 50.5899L49.9459 50.5427V50.4775C49.9459 50.4056 49.925 50.3494 49.883 50.309C49.8426 50.2685 49.7759 50.2483 49.683 50.2483C49.6156 50.2483 49.5609 50.2618 49.519 50.2888C49.4785 50.3157 49.4501 50.3502 49.4336 50.3921C49.4246 50.4146 49.4089 50.4258 49.3864 50.4258H49.2853C49.2688 50.4258 49.2561 50.4213 49.2471 50.4123C49.2396 50.4019 49.2358 50.3899 49.2358 50.3764C49.2358 50.3539 49.2441 50.3262 49.2605 50.2932C49.2785 50.2603 49.3055 50.2281 49.3414 50.1966C49.3774 50.1652 49.4231 50.1389 49.4785 50.118C49.5355 50.0955 49.6044 50.0843 49.6853 50.0843C49.7752 50.0843 49.8508 50.0962 49.9122 50.1202C49.9737 50.1427 50.0216 50.1734 50.056 50.2123C50.092 50.2513 50.1175 50.2955 50.1325 50.3449C50.1489 50.3944 50.1572 50.4446 50.1572 50.4955V51.2236C50.1572 51.2386 50.1519 51.2513 50.1414 51.2618C50.1325 51.2708 50.1205 51.2753 50.1055 51.2753H50.0021C49.9856 51.2753 49.9729 51.2708 49.9639 51.2618C49.9549 51.2513 49.9504 51.2386 49.9504 51.2236V51.127C49.931 51.1539 49.9047 51.1809 49.8718 51.2079C49.8388 51.2333 49.7976 51.255 49.7482 51.273C49.6987 51.2895 49.6381 51.2977 49.5662 51.2977ZM49.6134 51.1292C49.6748 51.1292 49.731 51.1165 49.7819 51.091C49.8328 51.064 49.8725 51.0228 49.901 50.9674C49.931 50.912 49.9459 50.8423 49.9459 50.7584V50.6955L49.6853 50.7337C49.5789 50.7487 49.4987 50.7741 49.4448 50.8101C49.3909 50.8446 49.3639 50.8888 49.3639 50.9427C49.3639 50.9846 49.3759 51.0198 49.3999 51.0483C49.4253 51.0753 49.4568 51.0955 49.4943 51.109C49.5332 51.1225 49.5729 51.1292 49.6134 51.1292ZM50.9254 51.2753C50.8415 51.2753 50.7734 51.2595 50.7209 51.2281C50.6685 51.1951 50.6303 51.1494 50.6063 51.091C50.5824 51.0311 50.5704 50.9607 50.5704 50.8798V50.2865H50.3951C50.3801 50.2865 50.3674 50.282 50.3569 50.273C50.3479 50.2625 50.3434 50.2498 50.3434 50.2348V50.1584C50.3434 50.1434 50.3479 50.1315 50.3569 50.1225C50.3674 50.112 50.3801 50.1067 50.3951 50.1067H50.5704V49.7315C50.5704 49.7165 50.5749 49.7045 50.5839 49.6955C50.5943 49.685 50.6071 49.6798 50.6221 49.6798H50.7277C50.7427 49.6798 50.7546 49.685 50.7636 49.6955C50.7741 49.7045 50.7794 49.7165 50.7794 49.7315V50.1067H51.058C51.073 50.1067 51.085 50.112 51.094 50.1225C51.1045 50.1315 51.1097 50.1434 51.1097 50.1584V50.2348C51.1097 50.2498 51.1045 50.2625 51.094 50.273C51.085 50.282 51.073 50.2865 51.058 50.2865H50.7794V50.864C50.7794 50.9344 50.7913 50.9899 50.8153 51.0303C50.8393 51.0708 50.882 51.091 50.9434 51.091H51.0805C51.0955 51.091 51.1075 51.0962 51.1164 51.1067C51.1269 51.1157 51.1322 51.1277 51.1322 51.1427V51.2236C51.1322 51.2386 51.1269 51.2513 51.1164 51.2618C51.1075 51.2708 51.0955 51.2753 51.0805 51.2753H50.9254ZM51.5156 51.2753C51.5006 51.2753 51.4879 51.2708 51.4774 51.2618C51.4684 51.2513 51.4639 51.2386 51.4639 51.2236V50.2865H51.2729C51.2579 50.2865 51.2452 50.282 51.2347 50.273C51.2257 50.2625 51.2212 50.2498 51.2212 50.2348V50.1584C51.2212 50.1434 51.2257 50.1315 51.2347 50.1225C51.2452 50.112 51.2579 50.1067 51.2729 50.1067H51.4639V49.9944C51.4639 49.918 51.4766 49.8513 51.5021 49.7944C51.5276 49.7359 51.568 49.691 51.6235 49.6595C51.6804 49.6281 51.756 49.6124 51.8504 49.6124H51.9853C52.0002 49.6124 52.0122 49.6176 52.0212 49.6281C52.0302 49.6371 52.0347 49.6491 52.0347 49.664V49.7404C52.0347 49.7554 52.0302 49.7682 52.0212 49.7786C52.0122 49.7876 52.0002 49.7921 51.9853 49.7921H51.8549C51.7845 49.7921 51.7366 49.8109 51.7111 49.8483C51.6856 49.8843 51.6729 49.9367 51.6729 50.0056V50.1067H51.9628C51.9778 50.1067 51.9898 50.112 51.9987 50.1225C52.0077 50.1315 52.0122 50.1434 52.0122 50.1584V50.2348C52.0122 50.2498 52.0077 50.2625 51.9987 50.273C51.9898 50.282 51.9778 50.2865 51.9628 50.2865H51.6729V51.2236C51.6729 51.2386 51.6677 51.2513 51.6572 51.2618C51.6482 51.2708 51.6362 51.2753 51.6212 51.2753H51.5156ZM52.6684 51.2977C52.5545 51.2977 52.4594 51.276 52.383 51.2326C52.3066 51.1891 52.2482 51.1292 52.2077 51.0528C52.1673 50.9749 52.1448 50.8865 52.1403 50.7876C52.1388 50.7622 52.1381 50.73 52.1381 50.691C52.1381 50.6506 52.1388 50.6183 52.1403 50.5944C52.1448 50.494 52.1673 50.4056 52.2077 50.3292C52.2497 50.2528 52.3089 50.1929 52.3853 50.1494C52.4617 50.106 52.556 50.0843 52.6684 50.0843C52.7808 50.0843 52.8751 50.106 52.9515 50.1494C53.028 50.1929 53.0864 50.2528 53.1268 50.3292C53.1688 50.4056 53.192 50.494 53.1965 50.5944C53.198 50.6183 53.1987 50.6506 53.1987 50.691C53.1987 50.73 53.198 50.7622 53.1965 50.7876C53.192 50.8865 53.1695 50.9749 53.1291 51.0528C53.0886 51.1292 53.0302 51.1891 52.9538 51.2326C52.8774 51.276 52.7823 51.2977 52.6684 51.2977ZM52.6684 51.1247C52.7613 51.1247 52.8354 51.0955 52.8909 51.0371C52.9463 50.9771 52.9763 50.8903 52.9808 50.7764C52.9823 50.7539 52.983 50.7255 52.983 50.691C52.983 50.6565 52.9823 50.6281 52.9808 50.6056C52.9763 50.4917 52.9463 50.4056 52.8909 50.3472C52.8354 50.2873 52.7613 50.2573 52.6684 50.2573C52.5755 50.2573 52.5006 50.2873 52.4437 50.3472C52.3883 50.4056 52.359 50.4917 52.356 50.6056C52.3545 50.6281 52.3538 50.6565 52.3538 50.691C52.3538 50.7255 52.3545 50.7539 52.356 50.7764C52.359 50.8903 52.3883 50.9771 52.4437 51.0371C52.5006 51.0955 52.5755 51.1247 52.6684 51.1247ZM53.5318 51.2753C53.5168 51.2753 53.5041 51.2708 53.4936 51.2618C53.4846 51.2513 53.4801 51.2386 53.4801 51.2236V50.1607C53.4801 50.1457 53.4846 50.1329 53.4936 50.1225C53.5041 50.112 53.5168 50.1067 53.5318 50.1067H53.6352C53.6502 50.1067 53.6629 50.112 53.6734 50.1225C53.6839 50.1329 53.6891 50.1457 53.6891 50.1607V50.2595C53.7191 50.2086 53.7603 50.1704 53.8127 50.1449C53.8651 50.1195 53.9281 50.1067 54.0015 50.1067H54.0914C54.1063 50.1067 54.1183 50.112 54.1273 50.1225C54.1363 50.1315 54.1408 50.1434 54.1408 50.1584V50.2506C54.1408 50.2655 54.1363 50.2775 54.1273 50.2865C54.1183 50.2955 54.1063 50.3 54.0914 50.3H53.9565C53.8756 50.3 53.812 50.324 53.7655 50.3719C53.7191 50.4183 53.6959 50.482 53.6959 50.5629V51.2236C53.6959 51.2386 53.6906 51.2513 53.6801 51.2618C53.6696 51.2708 53.6569 51.2753 53.6419 51.2753H53.5318ZM54.3855 51.2753C54.3705 51.2753 54.3578 51.2708 54.3473 51.2618C54.3383 51.2513 54.3338 51.2386 54.3338 51.2236V50.1584C54.3338 50.1434 54.3383 50.1315 54.3473 50.1225C54.3578 50.112 54.3705 50.1067 54.3855 50.1067H54.4866C54.5016 50.1067 54.5136 50.112 54.5226 50.1225C54.533 50.1315 54.5383 50.1434 54.5383 50.1584V50.2371C54.5727 50.1906 54.6162 50.1539 54.6686 50.127C54.7211 50.0985 54.784 50.0843 54.8574 50.0843C55.0267 50.0828 55.1465 50.1517 55.2169 50.291C55.2514 50.2281 55.3016 50.1779 55.3675 50.1404C55.4334 50.103 55.5083 50.0843 55.5922 50.0843C55.6701 50.0843 55.7405 50.1022 55.8035 50.1382C55.8679 50.1741 55.9181 50.2288 55.954 50.3022C55.9915 50.3741 56.0102 50.4648 56.0102 50.5741V51.2236C56.0102 51.2386 56.005 51.2513 55.9945 51.2618C55.9855 51.2708 55.9735 51.2753 55.9585 51.2753H55.8529C55.8379 51.2753 55.8252 51.2708 55.8147 51.2618C55.8057 51.2513 55.8012 51.2386 55.8012 51.2236V50.5944C55.8012 50.5105 55.7892 50.4446 55.7653 50.3966C55.7413 50.3487 55.7091 50.315 55.6686 50.2955C55.6282 50.276 55.584 50.2663 55.536 50.2663C55.4971 50.2663 55.4574 50.276 55.4169 50.2955C55.3765 50.315 55.3428 50.3487 55.3158 50.3966C55.2903 50.4446 55.2776 50.5105 55.2776 50.5944V51.2236C55.2776 51.2386 55.2724 51.2513 55.2619 51.2618C55.2529 51.2708 55.2409 51.2753 55.2259 51.2753H55.1203C55.1053 51.2753 55.0926 51.2708 55.0821 51.2618C55.0731 51.2513 55.0686 51.2386 55.0686 51.2236V50.5944C55.0686 50.5105 55.0559 50.4446 55.0304 50.3966C55.005 50.3487 54.972 50.315 54.9315 50.2955C54.8911 50.276 54.8484 50.2663 54.8035 50.2663C54.7645 50.2663 54.7248 50.276 54.6844 50.2955C54.6439 50.315 54.6102 50.3487 54.5832 50.3966C54.5578 50.4446 54.545 50.5097 54.545 50.5921V51.2236C54.545 51.2386 54.5398 51.2513 54.5293 51.2618C54.5203 51.2708 54.5083 51.2753 54.4933 51.2753H54.3855Z" fill="#3A7AD5"/>
</svg>
