<svg width="73" height="65" viewBox="0 0 73 65" fill="none" xmlns="http://www.w3.org/2000/svg">
<path d="M0 0V2.93103C6.55699 -0.431034 13.8184 0.215517 22.9766 3.40517C30.303 5.9569 32.0985 11.4511 32.0805 13.8793C31.4302 12.8448 30.4006 12.9598 29.9671 13.1466C31.441 14.6638 30.5812 17.6006 29.9671 18.8793C30.2705 17.9483 30.0935 16.8534 29.9671 16.4224C29.371 19.0948 28.5581 19.5259 27.6911 22.4138C24.7106 24.6983 24.6565 26.2931 26.228 29.2241C27.4852 31.569 27.1131 32.2126 26.7699 32.2414H23.4643C23.4101 32.0977 23.3342 32.0948 23.4643 33.2328C23.5943 34.3707 21.8928 34.3678 21.0257 34.2241C21.1991 34.8793 21.2786 35.4741 21.2967 35.6897L19.9419 36.2069C19.4217 41.2069 12.8972 37.9454 9.70001 35.6897C8.22604 36.5862 8.00206 38.2471 8.07431 38.9655C15.5309 42.069 18.6233 45.2011 19.2375 46.3793C26.0004 42.0345 33.6159 37.4425 36.5783 35.6897C37.9655 36.1724 40.7689 38.0747 41.9973 38.9655C41.0435 38.069 38.9265 36.408 37.9872 35.6897L41.0218 35.0862C45.5304 38.2586 52.8714 46.1207 55.9783 49.6552C54.9378 48.069 51.2818 43.3621 49.5839 41.2069L60.747 38.1897C59.2343 49.8387 60.3825 53.2648 61.1198 54.1249C61.2327 54.1136 61.3261 54.1173 61.3973 54.1379C61.8331 54.264 61.5447 54.6205 61.1198 54.1249C59.7211 54.2648 55.3333 56.7143 53.1604 58.0172C52.987 59.1207 48.7529 63.1322 46.6576 65C61.7224 60.3448 76.5705 50.6897 72.2353 25.431C68.7671 5.22414 44.2371 0.0574713 32.4056 0H0Z" fill="white"/>
</svg>
